<?xml version="1.0"?>
<svg width="600" height="600" viewBox="0 0 600 600" fill="none" version="1.1" id="svg8" xmlns:inkscape="http://www.inkscape.org/namespaces/inkscape" xmlns:sodipodi="http://sodipodi.sourceforge.net/DTD/sodipodi-0.dtd" xmlns="http://www.w3.org/2000/svg" xmlns:svg="http://www.w3.org/2000/svg">
  <namedview id="namedview1" pagecolor="#ffffff" bordercolor="#000000" borderopacity="0.25"></namedview>
  <defs id="defs8">
    <linearGradient id="paint0_linear_1016_105" x1="50" y1="50" x2="550" y2="550" gradientUnits="userSpaceOnUse">
      <stop offset="0.0684898" stop-color="#0047AB" id="stop7"></stop>
      <stop offset="0.741212" stop-color="#8A2BE2" id="stop8"></stop>
    </linearGradient>
    <linearGradient id="paint0_linear_23_2" x1="129.5" y1="129.5" x2="527" y2="527" gradientUnits="userSpaceOnUse" gradientTransform="translate(-50.116887,-50.31763)">
      <stop stop-color="#E40303" id="stop8-5"></stop>
      <stop offset="0.2" stop-color="#FF8C00" id="stop9"></stop>
      <stop offset="0.4" stop-color="#FFED00" id="stop10"></stop>
      <stop offset="0.6" stop-color="#008026" id="stop11"></stop>
      <stop offset="0.8" stop-color="#004CFF" id="stop12"></stop>
      <stop offset="1" stop-color="#732982" id="stop13"></stop>
    </linearGradient>
    <linearGradient id="paint0_linear_23_2-6" x1="148.5" y1="148.5" x2="527" y2="527" gradientUnits="userSpaceOnUse" gradientTransform="translate(-49.89675,-51.010855)">
      <stop stop-color="#732982" id="stop4"></stop>
      <stop offset="0.2" stop-color="#004CFF" id="stop5"></stop>
      <stop offset="0.4" stop-color="#008026" id="stop6"></stop>
      <stop offset="0.6" stop-color="#FFED00" id="stop7-7"></stop>
      <stop offset="0.8" stop-color="#FF8C00" id="stop8-53"></stop>
      <stop offset="1" stop-color="#E40303" id="stop9-5"></stop>
    </linearGradient>
  </defs>
  <path d="m 50.10325,148.98914 c 0,-55.227998 44.771997,-99.999995 100,-99.999995 h 150 c 138.071,0 250,111.928995 250,249.999995 v 0 c 0,138.071 -111.929,250 -250,250 v 0 c -138.071,0 -250,-111.929 -250,-250 z" fill="url(#paint0_linear_23_2)" id="path1" style="fill:url(#paint0_linear_23_2-6)"></path>
  <path d="m 50.10325,148.98914 c 0,-55.227998 44.771997,-99.999995 100,-99.999995 h 150 c 138.071,0 250,111.928995 250,249.999995 v 0 c 0,138.071 -111.929,250 -250,250 v 0 c -138.071,0 -250,-111.929 -250,-250 z" fill="#ffffff" fill-opacity="0.29" style="mix-blend-mode:overlay" id="path2"></path>
</svg>